# xmcd CD database file
#
# Track frame offsets:
#	150
#	27232
#	44990
#	67760
#	88748
#	110557
#	131240
#	145870
#	167353
#	180497
#	203971
#	223841
#	246811
#
# Disc length: 3501 seconds
#
# Revision: 0
# Processed by: cddbd v1.5.1PL0 Copyright (c) Steve Scherf et al.
# Submitted via: CDex 1.50
#
DISCID=c10dab0d
DTITLE=Miles Cope Quartet - Can't Buy Me Love
DYEAR=2004
DGENRE=Jazz
TTITLE0=Can't Buy Me Love
TTITLE1=Sasha Bossa
TTITLE2=Willow Weep For Me
TTITLE3=Georgia
TTITLE4=Room With A View
TTITLE5=Lucky So and So
TTITLE6=Do Nothin' Till You Hear From Me
TTITLE7=Face To Face With Love
TTITLE8=Blues Medley
TTITLE9=Sweet Lorraine
TTITLE10=Angel Eyes
TTITLE11=One For My Baby
TTITLE12=Bye Bye Blackbird
EXTD=YEAR: 2004
EXTT0=
EXTT1=
EXTT2=
EXTT3=
EXTT4=
EXTT5=
EXTT6=
EXTT7=
EXTT8=
EXTT9=
EXTT10=
EXTT11=
EXTT12=
PLAYORDER=
